
        <svg xmlns="http://www.w3.org/2000/svg" xmlns:xlink="http://www.w3.org/1999/xlink" version="1.1" width="3187.5" 
        height="1209.7493261966056" viewBox="0 0 3187.5 1209.7493261966056">
			
			<g transform="scale(9.375) translate(10, 10)">
				<defs id="SvgjsDefs4173"></defs><g id="SvgjsG4174" featureKey="symbolFeature-0" transform="matrix(1.3678206296595798,0,0,1.3678206296595798,-18.61467123079959,-13.992804415278908)" fill="#f0fff3"><g xmlns="http://www.w3.org/2000/svg"><path fill-rule="evenodd" clip-rule="evenodd" d="M80.11,49.695c0.003,5.951,1.481,10.771,3.303,10.771   c1.823,0,3.302-4.824,3.305-10.768c-0.003-5.951-1.479-10.773-3.303-10.773C81.591,38.926,80.107,43.748,80.11,49.695z"></path><path fill-rule="evenodd" clip-rule="evenodd" d="M39.138,14.154c-15.075,6.26-25.529,19.93-25.529,35.779   c-0.004,15.852,10.454,29.52,25.536,35.777C30.504,78.232,24.764,65,24.764,49.934S30.508,21.637,39.138,14.154z"></path><path fill-rule="evenodd" clip-rule="evenodd" d="M49.349,10.23c-7.066,0-12.803,17.854-12.803,39.857   c0,22.016,5.736,39.859,12.808,39.861c3.491-0.002,6.66-4.367,8.969-11.438c1.954,4.756,4.414,7.598,7.084,7.598   c6.367,0.002,11.532-16.066,11.527-35.883c0.005-19.816-5.156-35.887-11.521-35.879c-2.651,0-5.093,2.797-7.041,7.484   C56.057,14.668,52.871,10.234,49.349,10.23z M75.225,50.227c0.005,11.121-2.764,20.143-6.174,20.143   c-3.412,0-6.176-9.023-6.176-20.139c0-11.127,2.764-20.146,6.176-20.15C72.465,30.084,75.229,39.102,75.225,50.227z M57.792,23.318   c-2.395,6.576-3.907,16.191-3.907,26.908c-0.001,10.623,1.484,20.166,3.841,26.736c-1.15,1.559-2.418,2.424-3.748,2.424   c-5.202-0.004-9.414-13.117-9.414-29.299c0-16.174,4.212-29.293,9.407-29.293C55.333,20.797,56.626,21.701,57.792,23.318z"></path></g></g><g id="SvgjsG4175" featureKey="nameFeature-0" transform="matrix(0.679347628907187,0,0,0.679347628907187,117.88043417980197,34.146739829014535)" fill="#f0fff3"><path d="M25.8 38.64 c0.16 0 0.32 0 0.44 -0.04 c0.24 0 0.4 0.08 0.52 0.2 c0.16 0.16 0.24 0.32 0.24 0.52 s-0.08 0.36 -0.2 0.48 c-0.16 0.12 -0.32 0.2 -0.48 0.2 l-10.08 0 c-0.2 0 -0.36 -0.08 -0.48 -0.2 c-0.16 -0.12 -0.24 -0.28 -0.24 -0.48 l0 -0.08 c0 -0.2 0.08 -0.36 0.24 -0.48 c0.12 -0.12 0.32 -0.2 0.52 -0.2 l1 0.08 l0.12 0 c0.44 0 0.68 -0.16 0.68 -0.44 c0 -0.2 -0.08 -0.4 -0.2 -0.56 l-5.24 -7.8 c-0.12 -0.16 -0.24 -0.2 -0.36 -0.24 c-0.16 0 -0.32 0.08 -0.4 0.2 l-0.92 1.08 c-0.08 0.08 -0.12 0.16 -0.12 0.28 l0 6.56 c0 0.64 0.28 0.92 0.8 0.88 l1.08 -0.04 c0.2 0 0.36 0.04 0.52 0.2 c0.12 0.12 0.2 0.28 0.2 0.48 l0 0.08 c0 0.2 -0.08 0.36 -0.2 0.48 s-0.28 0.2 -0.48 0.2 l-8.96 0 c-0.2 0 -0.36 -0.08 -0.48 -0.2 s-0.2 -0.28 -0.2 -0.48 l0 -0.08 c0 -0.2 0.08 -0.36 0.2 -0.48 c0.16 -0.16 0.32 -0.2 0.52 -0.2 l0.68 0.04 l0.08 0 c0.44 0 0.68 -0.32 0.68 -0.88 l0 -19.48 c0 -0.24 -0.08 -0.48 -0.2 -0.64 s-0.32 -0.2 -0.56 -0.2 l-0.64 0.04 c-0.2 0 -0.4 -0.04 -0.56 -0.2 c-0.12 -0.12 -0.2 -0.32 -0.2 -0.52 s0.08 -0.36 0.2 -0.52 c0.16 -0.12 0.32 -0.2 0.52 -0.2 l9.04 0 c0.2 0 0.36 0.08 0.52 0.2 c0.12 0.16 0.2 0.32 0.2 0.52 c0 0.24 -0.08 0.4 -0.2 0.52 c-0.16 0.16 -0.32 0.24 -0.56 0.2 l-1.2 -0.04 c-0.52 0 -0.8 0.32 -0.8 0.88 l0 9.24 c0 0.2 0.08 0.36 0.28 0.44 s0.4 0.04 0.56 -0.16 l7.56 -8.96 c0.44 -0.52 0.68 -0.88 0.68 -1.08 c0 -0.24 -0.12 -0.36 -0.4 -0.36 l-0.68 0.04 c-0.24 0 -0.4 -0.04 -0.56 -0.2 c-0.12 -0.12 -0.2 -0.32 -0.2 -0.52 s0.08 -0.36 0.2 -0.52 c0.16 -0.12 0.32 -0.2 0.52 -0.2 l5.8 0 c0.2 0 0.36 0.08 0.48 0.2 c0.16 0.16 0.24 0.32 0.24 0.52 s-0.08 0.4 -0.24 0.52 c-0.16 0.16 -0.32 0.2 -0.52 0.2 l-0.64 -0.04 c-0.4 0 -0.8 0.04 -1.16 0.2 c-0.32 0.16 -0.72 0.48 -1.16 0.96 l-5.16 6 c-0.24 0.32 -0.28 0.68 -0.04 1.04 l8.44 12.48 c0.24 0.36 0.56 0.56 0.96 0.56 z M42.32000000000001 24.52 c-1.48 -1.36 -3.44 -2 -5.84 -2 c-3.04 0 -5.32 0.72 -6.84 2.2 c-1.56 1.44 -2.32 3.72 -2.32 6.8 c0 3.04 0.76 5.28 2.24 6.72 s3.8 2.16 7 2.16 c1.88 0 3.52 -0.36 4.88 -1.08 c1.16 -0.64 2.04 -1.44 2.64 -2.52 c0.08 -0.16 0.12 -0.32 0.08 -0.48 s-0.12 -0.28 -0.24 -0.4 c-0.2 -0.12 -0.36 -0.16 -0.52 -0.12 c-0.2 0.04 -0.32 0.16 -0.44 0.32 c-0.44 0.64 -1 1.2 -1.68 1.68 c-0.92 0.64 -2 0.96 -3.24 0.96 c-1.68 -0.04 -2.96 -0.64 -3.8 -1.84 c-0.68 -1 -1.12 -2.36 -1.24 -4.04 c0 -0.36 0.08 -0.64 0.32 -0.88 c0.2 -0.24 0.48 -0.36 0.8 -0.36 l8.92 0 c0.44 0 0.76 -0.16 1.08 -0.44 c0.28 -0.28 0.44 -0.64 0.44 -1.04 c-0.04 -2.44 -0.8 -4.32 -2.24 -5.64 z M33.800000000000004 25.68 c0.56 -1.2 1.4 -1.8 2.56 -1.8 c0.96 0 1.68 0.4 2.12 1.24 s0.68 2.12 0.68 3.88 c0 0.48 -0.08 0.84 -0.2 1.04 c-0.16 0.16 -0.36 0.28 -0.6 0.28 l-4.2 0 c-0.32 0 -0.6 -0.12 -0.8 -0.36 c-0.24 -0.24 -0.32 -0.52 -0.32 -0.88 c0.08 -1.36 0.36 -2.48 0.76 -3.4 z M64.72 23.52 c0 -0.16 -0.08 -0.32 -0.2 -0.44 s-0.28 -0.2 -0.44 -0.2 l-5.12 0 c-0.16 0 -0.32 0.08 -0.44 0.2 s-0.2 0.28 -0.2 0.44 c0 0.2 0.08 0.36 0.2 0.48 s0.28 0.2 0.48 0.2 l1.2 -0.08 c0.32 0 0.44 0.12 0.44 0.36 c0 0.12 0 0.2 -0.04 0.24 l-3.16 7.56 c-0.12 0.28 -0.28 0.4 -0.56 0.4 c-0.24 0.04 -0.44 -0.08 -0.6 -0.36 l-3.68 -7.52 c-0.08 -0.16 -0.04 -0.32 0.04 -0.44 c0.12 -0.16 0.28 -0.24 0.44 -0.24 l1.16 0.08 c0.16 0 0.32 -0.08 0.48 -0.2 c0.12 -0.12 0.2 -0.28 0.2 -0.48 c0 -0.16 -0.08 -0.32 -0.2 -0.44 s-0.28 -0.2 -0.48 -0.2 l-9.08 0 c-0.16 0 -0.32 0.08 -0.44 0.2 s-0.2 0.28 -0.2 0.44 c0 0.2 0.08 0.36 0.2 0.48 s0.28 0.2 0.48 0.16 l0.88 -0.04 c0.28 0 0.48 0.2 0.68 0.52 l7.24 15.32 c0.08 0.16 0.08 0.32 0.04 0.52 l-1.8 4.28 c-0.32 0.76 -0.6 1.24 -0.84 1.56 c-0.28 0.28 -0.56 0.4 -0.92 0.4 c-0.24 0 -0.44 -0.08 -0.6 -0.2 c-0.12 -0.16 -0.28 -0.4 -0.44 -0.72 c-0.24 -0.44 -0.52 -0.8 -0.84 -1.08 c-0.28 -0.24 -0.76 -0.36 -1.36 -0.36 s-1.12 0.2 -1.6 0.68 c-0.48 0.44 -0.72 1.08 -0.72 1.92 c0.08 0.88 0.4 1.52 1 1.96 s1.4 0.64 2.4 0.64 c1.24 0 2.32 -0.32 3.16 -1.04 c0.88 -0.72 1.68 -2 2.44 -3.88 l8.2 -19.76 c0.2 -0.48 0.52 -0.76 1.04 -0.76 l0.08 0 l0.8 0.04 c0.16 0 0.36 -0.04 0.48 -0.16 s0.2 -0.28 0.2 -0.48 z M67.91999999999999 34.24 c-0.2 0.04 -0.32 0.08 -0.48 0.24 c-0.12 0.12 -0.16 0.28 -0.2 0.44 l-0.12 3.24 c0 0.32 0.12 0.6 0.36 0.84 c0.2 0.24 0.48 0.36 0.84 0.36 c0.32 0 0.72 0.04 1.12 0.16 c1.36 0.36 2.32 0.6 2.96 0.72 s1.28 0.16 1.88 0.16 c2.12 0 3.8 -0.52 5.12 -1.6 c1.28 -1.04 1.92 -2.52 1.92 -4.44 c0 -1.4 -0.36 -2.52 -1.04 -3.4 s-1.96 -1.56 -3.8 -2.04 l-2.76 -0.72 c-0.72 -0.2 -1.28 -0.48 -1.64 -0.84 c-0.4 -0.36 -0.56 -0.8 -0.56 -1.32 c0 -0.6 0.24 -1.12 0.72 -1.52 c0.52 -0.44 1.16 -0.64 2 -0.64 c1.44 0 2.6 0.36 3.44 1.12 c0.68 0.6 1.08 1.32 1.2 2.08 c0.04 0.16 0.12 0.32 0.24 0.44 c0.12 0.08 0.24 0.12 0.4 0.12 c0.2 0 0.32 -0.04 0.44 -0.16 s0.2 -0.24 0.2 -0.44 l0.16 -2.52 c0 -0.32 -0.12 -0.6 -0.32 -0.8 s-0.48 -0.32 -0.8 -0.32 l0 0 c-0.48 0 -1.16 -0.12 -2.04 -0.36 c-0.64 -0.2 -1.24 -0.32 -1.68 -0.4 s-0.96 -0.12 -1.52 -0.12 c-2.08 0 -3.72 0.52 -4.88 1.56 c-1.12 1 -1.72 2.36 -1.72 4.04 c0 1.36 0.36 2.48 1.12 3.36 c0.72 0.88 1.88 1.52 3.44 1.96 l2.88 0.8 c0.92 0.24 1.6 0.56 2 0.92 c0.36 0.36 0.56 0.84 0.56 1.48 c0 0.72 -0.24 1.32 -0.76 1.72 c-0.52 0.44 -1.24 0.64 -2.12 0.64 c-1.6 0 -3 -0.48 -4.12 -1.36 c-0.96 -0.76 -1.52 -1.68 -1.68 -2.76 c0 -0.2 -0.08 -0.36 -0.24 -0.48 c-0.12 -0.08 -0.28 -0.16 -0.48 -0.16 l-0.04 0 z M88.83999999999999 22.92 l0 -2.44 c0 -0.44 -0.16 -0.84 -0.48 -1.16 c-0.32 -0.36 -0.72 -0.52 -1.16 -0.52 c-0.76 0 -1.28 0.4 -1.6 1.2 c-0.2 0.6 -0.4 1.12 -0.64 1.48 c-0.32 0.56 -0.76 0.92 -1.32 1.12 c-0.44 0.16 -1.08 0.28 -1.84 0.32 c-0.16 0 -0.32 0.08 -0.44 0.2 s-0.2 0.24 -0.2 0.44 c0 0.16 0.08 0.32 0.2 0.44 s0.28 0.2 0.48 0.2 l1.76 0 l0 12.24 c0 1.36 0.48 2.36 1.4 2.96 c0.92 0.64 2.24 0.96 3.84 0.96 c1.16 0 2.08 -0.2 2.8 -0.6 c0.56 -0.28 1.04 -0.72 1.36 -1.28 c0.08 -0.16 0.12 -0.32 0.04 -0.48 c-0.04 -0.16 -0.12 -0.28 -0.28 -0.36 s-0.32 -0.12 -0.44 -0.08 c-0.16 0.04 -0.28 0.12 -0.4 0.28 c-0.16 0.24 -0.32 0.44 -0.56 0.6 c-0.36 0.28 -0.68 0.44 -1 0.44 c-0.52 0 -0.92 -0.16 -1.16 -0.48 s-0.36 -0.96 -0.36 -1.88 l0 -12.32 l3.36 0 c0.16 0 0.32 -0.08 0.44 -0.2 s0.2 -0.28 0.2 -0.44 s-0.08 -0.32 -0.2 -0.44 c-0.12 -0.16 -0.28 -0.2 -0.44 -0.2 l-3.36 0 z M97.75999999999999 24.880000000000003 c1.48 -1.52 3.72 -2.28 6.72 -2.28 s5.24 0.76 6.72 2.28 s2.2 3.72 2.2 6.6 c0 5.96 -2.96 8.92 -8.92 8.92 c-3 0 -5.24 -0.76 -6.72 -2.28 s-2.24 -3.72 -2.24 -6.64 c0 -2.88 0.76 -5.08 2.24 -6.6 z M101.91999999999999 37.28 c0.52 1.16 1.36 1.72 2.56 1.72 s2.04 -0.56 2.56 -1.68 s0.76 -3.04 0.76 -5.76 c0 -2.76 -0.24 -4.72 -0.76 -5.88 s-1.36 -1.72 -2.56 -1.72 s-2.04 0.56 -2.56 1.72 s-0.8 3.12 -0.8 5.88 c0 2.68 0.28 4.6 0.8 5.72 z M135.48 39.32 c0 -0.2 -0.04 -0.36 -0.2 -0.48 c-0.12 -0.12 -0.28 -0.16 -0.48 -0.16 l-0.64 0.04 c-0.32 0 -0.52 -0.28 -0.52 -0.76 l0 -9.68 c0 -2 -0.4 -3.44 -1.24 -4.36 c-0.84 -0.96 -2.16 -1.4 -3.96 -1.4 c-1.48 0 -2.72 0.36 -3.76 1.04 c-0.72 0.48 -1.32 1.08 -1.8 1.8 c-0.12 0.16 -0.28 0.2 -0.44 0.12 c-0.16 -0.04 -0.24 -0.16 -0.24 -0.36 l0 -0.8 l0 0 c0 -0.4 -0.16 -0.72 -0.4 -1 c-0.28 -0.28 -0.6 -0.4 -0.96 -0.4 l-5.12 0 c-0.16 0 -0.32 0.04 -0.44 0.2 c-0.16 0.12 -0.2 0.28 -0.2 0.44 c0 0.2 0.08 0.32 0.2 0.48 c0.12 0.12 0.28 0.16 0.48 0.16 l0.64 -0.04 c0.36 0.08 0.52 0.36 0.52 0.8 l0 13 c0 0.4 -0.16 0.68 -0.52 0.76 l-0.64 -0.04 c-0.2 0 -0.36 0.04 -0.48 0.16 s-0.2 0.28 -0.2 0.48 l0 0.04 c0 0.16 0.04 0.32 0.2 0.44 c0.12 0.12 0.28 0.2 0.44 0.2 l7.92 0 c0.16 0 0.32 -0.08 0.44 -0.2 s0.2 -0.28 0.2 -0.44 l0 -0.04 c0 -0.2 -0.08 -0.36 -0.2 -0.48 s-0.28 -0.16 -0.48 -0.16 l-0.88 0.04 c-0.36 0 -0.52 -0.28 -0.52 -0.76 l0 -5.92 c0 -1.6 0.2 -3 0.64 -4.12 c0.44 -1.16 0.96 -2.04 1.64 -2.64 c0.64 -0.6 1.32 -0.88 2 -0.88 c0.8 0 1.32 0.28 1.56 0.88 c0.24 0.56 0.36 1.56 0.36 2.96 l0 9.72 c0 0.4 -0.2 0.68 -0.56 0.76 l-0.84 -0.04 c-0.2 0 -0.36 0.04 -0.48 0.16 s-0.2 0.28 -0.2 0.48 l0 0.04 c0 0.16 0.08 0.32 0.2 0.44 s0.28 0.2 0.44 0.2 l7.88 0 c0.2 0 0.36 -0.08 0.48 -0.2 s0.16 -0.28 0.16 -0.44 l0 -0.04 z M151.71999999999997 24.52 c-1.48 -1.36 -3.44 -2 -5.84 -2 c-3.04 0 -5.32 0.72 -6.84 2.2 c-1.56 1.44 -2.32 3.72 -2.32 6.8 c0 3.04 0.76 5.28 2.24 6.72 s3.8 2.16 7 2.16 c1.88 0 3.52 -0.36 4.88 -1.08 c1.16 -0.64 2.04 -1.44 2.64 -2.52 c0.08 -0.16 0.12 -0.32 0.08 -0.48 s-0.12 -0.28 -0.24 -0.4 c-0.2 -0.12 -0.36 -0.16 -0.52 -0.12 c-0.2 0.04 -0.32 0.16 -0.44 0.32 c-0.44 0.64 -1 1.2 -1.68 1.68 c-0.92 0.64 -2 0.96 -3.24 0.96 c-1.68 -0.04 -2.96 -0.64 -3.8 -1.84 c-0.68 -1 -1.12 -2.36 -1.24 -4.04 c0 -0.36 0.08 -0.64 0.32 -0.88 c0.2 -0.24 0.48 -0.36 0.8 -0.36 l8.92 0 c0.44 0 0.76 -0.16 1.08 -0.44 c0.28 -0.28 0.44 -0.64 0.44 -1.04 c-0.04 -2.44 -0.8 -4.32 -2.24 -5.64 z M143.2 25.68 c0.56 -1.2 1.4 -1.8 2.56 -1.8 c0.96 0 1.68 0.4 2.12 1.24 s0.68 2.12 0.68 3.88 c0 0.48 -0.08 0.84 -0.2 1.04 c-0.16 0.16 -0.36 0.28 -0.6 0.28 l-4.2 0 c-0.32 0 -0.6 -0.12 -0.8 -0.36 c-0.24 -0.24 -0.32 -0.52 -0.32 -0.88 c0.08 -1.36 0.36 -2.48 0.76 -3.4 z M181.15999999999997 28.6 c0.88 1.04 1.32 2.4 1.32 4.08 c0 1.44 -0.32 2.76 -1 3.92 s-1.64 2.08 -2.96 2.76 c-1.32 0.72 -2.92 1.04 -4.8 1.04 c-1.16 0 -2.44 -0.16 -3.8 -0.52 c-1.56 -0.4 -2.6 -0.6 -3.16 -0.6 c-0.24 0 -0.52 0 -0.84 0.04 l0 0 l-0.04 0 c-0.16 0.04 -0.28 0 -0.4 -0.12 s-0.16 -0.24 -0.16 -0.4 c0.04 -0.6 0.08 -1.4 0.08 -2.4 c0 -1.08 -0.04 -2.08 -0.08 -3 c0 -0.32 -0.04 -0.6 -0.08 -0.84 c0 -0.16 0.04 -0.32 0.16 -0.44 c0.08 -0.12 0.24 -0.2 0.4 -0.24 c0.16 0 0.28 0.04 0.4 0.12 c0.12 0.12 0.2 0.24 0.24 0.4 c0.32 2.04 1.04 3.64 2.2 4.76 c1.24 1.2 2.8 1.8 4.64 1.8 c1.36 0 2.44 -0.4 3.24 -1.12 c0.8 -0.76 1.2 -1.76 1.2 -3 c0 -1.88 -1.28 -3.28 -3.84 -4.28 l-3.92 -1.64 c-3.08 -1.28 -4.6 -3.36 -4.6 -6.24 c0 -1.28 0.32 -2.48 0.92 -3.56 c0.64 -1.04 1.56 -1.92 2.8 -2.56 c1.2 -0.64 2.72 -0.96 4.48 -0.96 c0.88 0 1.64 0.08 2.24 0.2 c0.64 0.12 1.24 0.32 1.88 0.52 c0.6 0.2 1.04 0.36 1.32 0.44 c0.44 0.16 0.84 0.24 1.2 0.24 l0.52 0 c0.16 -0.04 0.28 0 0.4 0.12 c0.08 0.12 0.16 0.24 0.16 0.4 c-0.04 0.6 -0.08 1.4 -0.08 2.36 c0 0.8 0 1.36 0.04 1.72 c0 0.08 0 0.16 0.04 0.24 c0 0.2 -0.04 0.36 -0.16 0.52 c-0.12 0.12 -0.24 0.2 -0.44 0.2 l-0.04 0 c-0.16 0 -0.28 -0.04 -0.4 -0.16 s-0.16 -0.24 -0.2 -0.4 c-0.08 -1.4 -0.68 -2.56 -1.68 -3.48 c-1.12 -1.04 -2.52 -1.56 -4.16 -1.56 c-1.24 0 -2.28 0.32 -3.12 0.96 c-0.68 0.56 -1.08 1.24 -1.24 2.12 c-0.16 0.96 0.08 1.84 0.76 2.56 c0.56 0.6 1.44 1.16 2.64 1.64 l3.4 1.44 c2.12 0.92 3.6 1.88 4.52 2.92 z M185.63999999999996 24.880000000000003 c1.48 -1.52 3.72 -2.28 6.72 -2.28 s5.24 0.76 6.72 2.28 s2.2 3.72 2.2 6.6 c0 5.96 -2.96 8.92 -8.92 8.92 c-3 0 -5.24 -0.76 -6.72 -2.28 s-2.24 -3.72 -2.24 -6.64 c0 -2.88 0.76 -5.08 2.24 -6.6 z M189.79999999999995 37.28 c0.52 1.16 1.36 1.72 2.56 1.72 s2.04 -0.56 2.56 -1.68 s0.76 -3.04 0.76 -5.76 c0 -2.76 -0.24 -4.72 -0.76 -5.88 s-1.36 -1.72 -2.56 -1.72 s-2.04 0.56 -2.56 1.72 s-0.8 3.12 -0.8 5.88 c0 2.68 0.28 4.6 0.8 5.72 z M203.11999999999995 39.32 c0 0.2 0.08 0.36 0.2 0.48 c0.16 0.12 0.32 0.2 0.48 0.2 l8.96 0 c0.2 0 0.36 -0.08 0.48 -0.2 s0.2 -0.28 0.2 -0.48 s-0.08 -0.36 -0.2 -0.48 c-0.16 -0.12 -0.32 -0.2 -0.48 -0.2 l-1.84 0.08 c-0.32 0 -0.52 -0.28 -0.52 -0.76 l0 -13.12 c0 -0.16 0.08 -0.32 0.2 -0.44 s0.28 -0.2 0.44 -0.2 l1.88 0 c0.16 0 0.32 -0.08 0.44 -0.2 s0.2 -0.28 0.2 -0.44 s-0.08 -0.32 -0.2 -0.44 c-0.12 -0.16 -0.28 -0.2 -0.44 -0.2 l-1.92 0 c-0.16 0 -0.32 -0.08 -0.44 -0.2 s-0.2 -0.28 -0.2 -0.44 l0 -0.32 c0 -0.16 0 -0.36 -0.04 -0.64 c-0.04 -0.16 -0.04 -0.4 -0.08 -0.64 c0 -0.24 -0.04 -0.6 -0.04 -1 c0 -0.24 0 -0.48 -0.04 -0.64 c0 -0.52 -0.04 -1.12 -0.04 -1.76 c0 -1.64 0.2 -2.8 0.6 -3.4 c0.4 -0.64 1 -0.96 1.72 -0.96 c0.48 0 0.88 0.16 1.12 0.52 s0.36 0.76 0.36 1.24 c0 0.36 -0.08 0.68 -0.2 1 c-0.12 0.4 -0.16 0.68 -0.16 0.84 c0 0.52 0.2 0.92 0.6 1.2 c0.44 0.28 0.96 0.44 1.56 0.44 c0.84 0 1.52 -0.24 1.92 -0.72 c0.44 -0.52 0.64 -1.08 0.64 -1.76 c0 -1.12 -0.56 -2.12 -1.64 -2.92 c-1.12 -0.8 -2.52 -1.2 -4.12 -1.2 c-2.8 0 -4.72 1 -5.8 2.96 c-1.04 2.24 -1.56 4.72 -1.56 7.48 l0 0.28 c0 0.16 -0.08 0.32 -0.2 0.44 s-0.28 0.2 -0.44 0.2 l-0.28 0 c-0.2 0 -0.36 0.04 -0.48 0.2 c-0.12 0.12 -0.16 0.28 -0.16 0.44 s0.04 0.32 0.16 0.44 s0.28 0.2 0.48 0.2 l0.28 0 c0.16 0 0.32 0.08 0.44 0.2 s0.2 0.28 0.2 0.44 l0 13.12 c0 0.48 -0.2 0.76 -0.52 0.76 l-0.8 -0.04 c-0.2 0 -0.36 0.04 -0.48 0.16 c-0.16 0.16 -0.24 0.32 -0.24 0.48 z M221.15999999999994 22.92 l0 -2.44 c0 -0.44 -0.16 -0.84 -0.48 -1.16 c-0.32 -0.36 -0.72 -0.52 -1.16 -0.52 c-0.76 0 -1.28 0.4 -1.6 1.2 c-0.2 0.6 -0.4 1.12 -0.64 1.48 c-0.32 0.56 -0.76 0.92 -1.32 1.12 c-0.44 0.16 -1.08 0.28 -1.84 0.32 c-0.16 0 -0.32 0.08 -0.44 0.2 s-0.2 0.24 -0.2 0.44 c0 0.16 0.08 0.32 0.2 0.44 s0.28 0.2 0.48 0.2 l1.76 0 l0 12.24 c0 1.36 0.48 2.36 1.4 2.96 c0.92 0.64 2.24 0.96 3.84 0.96 c1.16 0 2.08 -0.2 2.8 -0.6 c0.56 -0.28 1.04 -0.72 1.36 -1.28 c0.08 -0.16 0.12 -0.32 0.04 -0.48 c-0.04 -0.16 -0.12 -0.28 -0.28 -0.36 s-0.32 -0.12 -0.44 -0.08 c-0.16 0.04 -0.28 0.12 -0.4 0.28 c-0.16 0.24 -0.32 0.44 -0.56 0.6 c-0.36 0.28 -0.68 0.44 -1 0.44 c-0.52 0 -0.92 -0.16 -1.16 -0.48 s-0.36 -0.96 -0.36 -1.88 l0 -12.32 l3.36 0 c0.16 0 0.32 -0.08 0.44 -0.2 s0.2 -0.28 0.2 -0.44 s-0.08 -0.32 -0.2 -0.44 c-0.12 -0.16 -0.28 -0.2 -0.44 -0.2 l-3.36 0 z M234.15999999999994 22.92 l0 -2.44 c0 -0.44 -0.16 -0.84 -0.48 -1.16 c-0.32 -0.36 -0.72 -0.52 -1.16 -0.52 c-0.76 0 -1.28 0.4 -1.6 1.2 c-0.2 0.6 -0.4 1.12 -0.64 1.48 c-0.32 0.56 -0.76 0.92 -1.32 1.12 c-0.44 0.16 -1.08 0.28 -1.84 0.32 c-0.16 0 -0.32 0.08 -0.44 0.2 s-0.2 0.24 -0.2 0.44 c0 0.16 0.08 0.32 0.2 0.44 s0.28 0.2 0.48 0.2 l1.76 0 l0 12.24 c0 1.36 0.48 2.36 1.4 2.96 c0.92 0.64 2.24 0.96 3.84 0.96 c1.16 0 2.08 -0.2 2.8 -0.6 c0.56 -0.28 1.04 -0.72 1.36 -1.28 c0.08 -0.16 0.12 -0.32 0.04 -0.48 c-0.04 -0.16 -0.12 -0.28 -0.28 -0.36 s-0.32 -0.12 -0.44 -0.08 c-0.16 0.04 -0.28 0.12 -0.4 0.28 c-0.16 0.24 -0.32 0.44 -0.56 0.6 c-0.36 0.28 -0.68 0.44 -1 0.44 c-0.52 0 -0.92 -0.16 -1.16 -0.48 s-0.36 -0.96 -0.36 -1.88 l0 -12.32 l3.36 0 c0.16 0 0.32 -0.08 0.44 -0.2 s0.2 -0.28 0.2 -0.44 s-0.08 -0.32 -0.2 -0.44 c-0.12 -0.16 -0.28 -0.2 -0.44 -0.2 l-3.36 0 z M255.99999999999994 24.52 c-1.48 -1.36 -3.44 -2 -5.84 -2 c-3.04 0 -5.32 0.72 -6.84 2.2 c-1.56 1.44 -2.32 3.72 -2.32 6.8 c0 3.04 0.76 5.28 2.24 6.72 s3.8 2.16 7 2.16 c1.88 0 3.52 -0.36 4.88 -1.08 c1.16 -0.64 2.04 -1.44 2.64 -2.52 c0.08 -0.16 0.12 -0.32 0.08 -0.48 s-0.12 -0.28 -0.24 -0.4 c-0.2 -0.12 -0.36 -0.16 -0.52 -0.12 c-0.2 0.04 -0.32 0.16 -0.44 0.32 c-0.44 0.64 -1 1.2 -1.68 1.68 c-0.92 0.64 -2 0.96 -3.24 0.96 c-1.68 -0.04 -2.96 -0.64 -3.8 -1.84 c-0.68 -1 -1.12 -2.36 -1.24 -4.04 c0 -0.36 0.08 -0.64 0.32 -0.88 c0.2 -0.24 0.48 -0.36 0.8 -0.36 l8.92 0 c0.44 0 0.76 -0.16 1.08 -0.44 c0.28 -0.28 0.44 -0.64 0.44 -1.04 c-0.04 -2.44 -0.8 -4.32 -2.24 -5.64 z M247.47999999999996 25.68 c0.56 -1.2 1.4 -1.8 2.56 -1.8 c0.96 0 1.68 0.4 2.12 1.24 s0.68 2.12 0.68 3.88 c0 0.48 -0.08 0.84 -0.2 1.04 c-0.16 0.16 -0.36 0.28 -0.6 0.28 l-4.2 0 c-0.32 0 -0.6 -0.12 -0.8 -0.36 c-0.24 -0.24 -0.32 -0.52 -0.32 -0.88 c0.08 -1.36 0.36 -2.48 0.76 -3.4 z M272.2399999999999 23.08 c-1.08 -0.36 -2.28 -0.56 -3.6 -0.56 c-2.68 0 -4.88 0.76 -6.52 2.32 c-1.68 1.52 -2.48 3.8 -2.48 6.76 s0.84 5.2 2.52 6.64 c1.72 1.44 3.88 2.16 6.52 2.16 c3.44 0 5.76 -1.36 7 -4.12 c0.08 -0.16 0.08 -0.36 0.04 -0.52 c-0.08 -0.16 -0.2 -0.28 -0.36 -0.4 c-0.2 -0.08 -0.36 -0.08 -0.52 0 c-0.2 0.04 -0.32 0.2 -0.4 0.36 c-0.48 1.04 -1.08 1.8 -1.8 2.28 c-0.92 0.6 -1.92 0.92 -3 0.92 c-1.4 0 -2.48 -0.6 -3.28 -1.76 c-0.8 -1.2 -1.2 -3.24 -1.2 -6.12 c0 -2.6 0.32 -4.44 0.96 -5.52 s1.56 -1.64 2.72 -1.64 c0.68 0 1.28 0.16 1.72 0.48 c0.48 0.28 0.72 0.72 0.72 1.32 c0 0.32 -0.08 0.64 -0.2 0.88 c-0.12 0.32 -0.16 0.6 -0.16 0.84 c0 0.6 0.2 1.04 0.64 1.36 c0.4 0.32 0.92 0.48 1.56 0.48 c0.8 0 1.44 -0.24 1.88 -0.72 s0.68 -1.08 0.68 -1.8 c0 -0.76 -0.32 -1.48 -0.92 -2.12 s-1.44 -1.16 -2.52 -1.52 z M297.5199999999999 39.32 c0 -0.16 -0.04 -0.32 -0.2 -0.48 c-0.12 -0.12 -0.28 -0.16 -0.48 -0.16 l-0.64 0.04 c-0.32 0 -0.52 -0.28 -0.52 -0.76 l0 -9.68 c0 -2 -0.4 -3.44 -1.24 -4.36 c-0.84 -0.96 -2.16 -1.4 -3.96 -1.4 c-1.48 0 -2.72 0.36 -3.76 1.04 c-0.72 0.48 -1.32 1.08 -1.84 1.84 c-0.08 0.12 -0.24 0.16 -0.4 0.12 s-0.24 -0.16 -0.24 -0.36 l0 -8.56 c0 -0.16 -0.08 -0.32 -0.2 -0.44 s-0.28 -0.2 -0.44 -0.2 l-5.84 0 c-0.2 0 -0.32 0.08 -0.44 0.2 c-0.16 0.12 -0.2 0.28 -0.2 0.44 c0 0.2 0.04 0.36 0.2 0.48 c0.12 0.12 0.28 0.2 0.48 0.16 l0.64 -0.04 c0.36 0.08 0.52 0.36 0.52 0.8 l0 19.96 c0 0.4 -0.16 0.68 -0.52 0.76 l-0.64 -0.04 c-0.16 0 -0.36 0.04 -0.48 0.16 c-0.12 0.16 -0.2 0.32 -0.2 0.48 c0 0.2 0.04 0.36 0.2 0.48 c0.12 0.12 0.28 0.2 0.44 0.2 l7.88 0 c0.2 0 0.36 -0.08 0.48 -0.2 s0.2 -0.28 0.2 -0.48 c0 -0.16 -0.08 -0.32 -0.2 -0.48 c-0.12 -0.12 -0.32 -0.16 -0.48 -0.16 l-0.88 0.04 c-0.36 0 -0.52 -0.28 -0.52 -0.76 l0 -5.92 c0 -1.6 0.2 -3 0.64 -4.12 c0.44 -1.16 0.96 -2.04 1.64 -2.64 c0.64 -0.6 1.32 -0.88 2 -0.88 c0.8 0 1.32 0.28 1.56 0.84 s0.32 1.56 0.32 3 l0 9.72 c0 0.4 -0.16 0.68 -0.52 0.76 l-0.8 -0.04 c-0.2 0 -0.36 0.04 -0.52 0.16 c-0.12 0.16 -0.2 0.32 -0.2 0.48 c0 0.2 0.08 0.36 0.2 0.48 s0.28 0.2 0.48 0.2 l7.84 0 c0.16 0 0.32 -0.08 0.48 -0.2 c0.12 -0.12 0.16 -0.28 0.16 -0.48 z"></path></g>
			</g>
		</svg>
	